name baseline.mot
datacolumns 19
datarows 21
range 10.38662600000000 10.41996900000000
endheader
time	ground_force1_vx	ground_force1_vy	ground_force1_vz	ground_force1_px	ground_force1_py	ground_force1_pz	ground_force2_vx	ground_force2_vy	ground_force2_vz	ground_force2_px	ground_force2_py	ground_force2_pz	ground_torque1_x	ground_torque1_y	ground_torque1_z	ground_torque2_x	ground_torque2_y	ground_torque2_z	
10.38662600000000	-49.49603900000000	793.91685500000006	46.00810000000000	-0.04516700000000	0.00000000000000	0.12086700000000	0.00000000000000	0.00000000000000	0.00000000000000	0.00000000000000	0.00000000000000	0.00000000000000	0.00000000000000	10.10007400000000	0.00000000000000	0.00000000000000	0.00000000000000	0.00000000000000	
10.38829100000000	-49.88055000000000	793.04726100000005	46.03181300000000	-0.04594900000000	0.00000000000000	0.12085800000000	0.00000000000000	0.00000000000000	0.00000000000000	0.00000000000000	0.00000000000000	0.00000000000000	0.00000000000000	10.09061100000000	0.00000000000000	0.00000000000000	0.00000000000000	0.00000000000000	
10.38997300000000	-50.27466600000000	792.11506999999995	46.04715600000000	-0.04673200000000	0.00000000000000	0.12084900000000	0.00000000000000	0.00000000000000	0.00000000000000	0.00000000000000	0.00000000000000	0.00000000000000	0.00000000000000	10.08406700000000	0.00000000000000	0.00000000000000	0.00000000000000	0.00000000000000	
10.39162800000000	-50.67873400000000	791.11942999999997	46.05396900000000	-0.04751400000000	0.00000000000000	0.12083800000000	0.00000000000000	0.00000000000000	0.00000000000000	0.00000000000000	0.00000000000000	0.00000000000000	0.00000000000000	10.08057400000000	0.00000000000000	0.00000000000000	0.00000000000000	0.00000000000000	
10.39329100000000	-51.09308000000000	790.05943000000002	46.05208800000000	-0.04829800000000	0.00000000000000	0.12082700000000	0.00000000000000	0.00000000000000	0.00000000000000	0.00000000000000	0.00000000000000	0.00000000000000	0.00000000000000	10.08025700000000	0.00000000000000	0.00000000000000	0.00000000000000	0.00000000000000	
10.39496900000000	-51.51800100000000	788.93409599999995	46.04134200000000	-0.04908200000000	0.00000000000000	0.12081500000000	0.00000000000000	0.00000000000000	0.00000000000000	0.00000000000000	0.00000000000000	0.00000000000000	0.00000000000000	10.08323500000000	0.00000000000000	0.00000000000000	0.00000000000000	0.00000000000000	
10.39662600000000	-51.95376400000000	787.74239000000000	46.02155500000000	-0.04986600000000	0.00000000000000	0.12080200000000	0.00000000000000	0.00000000000000	0.00000000000000	0.00000000000000	0.00000000000000	0.00000000000000	0.00000000000000	10.08962400000000	0.00000000000000	0.00000000000000	0.00000000000000	0.00000000000000	
10.39829200000000	-52.40060700000000	786.48320400000000	45.99254200000000	-0.05065200000000	0.00000000000000	0.12078800000000	0.00000000000000	0.00000000000000	0.00000000000000	0.00000000000000	0.00000000000000	0.00000000000000	0.00000000000000	10.09953300000000	0.00000000000000	0.00000000000000	0.00000000000000	0.00000000000000	
10.39996700000000	-52.85873300000000	785.15535799999998	45.95411200000000	-0.05143800000000	0.00000000000000	0.12077300000000	0.00000000000000	0.00000000000000	0.00000000000000	0.00000000000000	0.00000000000000	0.00000000000000	0.00000000000000	10.11306500000000	0.00000000000000	0.00000000000000	0.00000000000000	0.00000000000000	
10.40162900000000	-53.32830600000000	783.75759900000003	45.90606700000000	-0.05222500000000	0.00000000000000	0.12075700000000	0.00000000000000	0.00000000000000	0.00000000000000	0.00000000000000	0.00000000000000	0.00000000000000	0.00000000000000	10.13031800000000	0.00000000000000	0.00000000000000	0.00000000000000	0.00000000000000	
10.40329200000000	-53.80945400000000	782.28859399999999	45.84819800000000	-0.05301300000000	0.00000000000000	0.12074100000000	0.00000000000000	0.00000000000000	0.00000000000000	0.00000000000000	0.00000000000000	0.00000000000000	0.00000000000000	10.15138400000000	0.00000000000000	0.00000000000000	0.00000000000000	0.00000000000000	
10.40496000000000	-54.30226400000000	780.74693300000001	45.78029100000000	-0.05380100000000	0.00000000000000	0.12072300000000	-1.45278300000000	3.66524600000000	1.64376000000000	0.00000000000000	0.00000000000000	0.00000000000000	0.00000000000000	10.17634600000000	0.00000000000000	0.00000000000000	0.41899000000000	0.00000000000000	
10.40662700000000	-54.80677900000000	779.13112599999999	45.70212200000000	-0.05459100000000	0.00000000000000	0.12070400000000	-2.25123600000000	7.24439000000000	2.76131800000000	0.00000000000000	0.00000000000000	0.00000000000000	0.00000000000000	10.20528200000000	0.00000000000000	0.00000000000000	0.71767800000000	0.00000000000000	
10.40829100000000	-55.32299700000000	777.43960000000004	45.61346000000000	-0.05538200000000	0.00000000000000	0.12068400000000	-3.13838700000000	11.59436500000000	4.05291500000000	0.00000000000000	0.00000000000000	0.00000000000000	0.00000000000000	10.23826200000000	0.00000000000000	0.00000000000000	1.06574100000000	0.00000000000000	
10.40996200000000	-55.85087100000000	775.67070200000001	45.51406600000000	-0.05617400000000	0.00000000000000	0.12066400000000	-4.08244300000000	16.67625100000000	5.48754600000000	0.00000000000000	0.00000000000000	0.00000000000000	0.00000000000000	10.27534800000000	0.00000000000000	0.00000000000000	1.45573900000000	0.00000000000000	
10.41162500000000	-56.39030100000000	773.82269899999994	45.40369200000000	-0.05696600000000	0.00000000000000	0.12064200000000	-5.04491100000000	22.41799100000000	7.02424800000000	0.00000000000000	0.00000000000000	0.00000000000000	0.00000000000000	10.31659600000000	0.00000000000000	0.00000000000000	1.87757400000000	0.00000000000000	
10.41329100000000	-56.94114100000000	771.89377200000001	45.28208600000000	-0.05776000000000	0.00000000000000	0.12061900000000	-5.98307100000000	28.71994400000000	8.61479300000000	0.20352000000000	0.00000000000000	-0.06425600000000	0.00000000000000	10.36205100000000	0.00000000000000	0.00000000000000	3.68800700000000	0.00000000000000	
10.41496900000000	-57.50319000000000	769.88202799999999	45.14898600000000	-0.05855400000000	0.00000000000000	0.12059500000000	-6.85302500000000	35.46338500000000	10.20725800000000	0.20943000000000	0.00000000000000	-0.06569500000000	0.00000000000000	10.41175100000000	0.00000000000000	0.00000000000000	4.45487900000000	0.00000000000000	
10.41662300000000	-58.07619500000000	767.78549099999998	45.00412900000000	-0.05934900000000	0.00000000000000	0.12057000000000	-7.61291800000000	42.52083800000000	11.74997600000000	0.21471200000000	0.00000000000000	-0.06699200000000	0.00000000000000	10.46572600000000	0.00000000000000	0.00000000000000	5.22188700000000	0.00000000000000	
10.41829300000000	-58.65984600000000	765.60211400000003	44.84724200000000	-0.06014400000000	0.00000000000000	0.12054400000000	-8.22591100000000	49.76675300000000	13.19535700000000	0.21946800000000	0.00000000000000	-0.06817000000000	0.00000000000000	10.52399400000000	0.00000000000000	0.00000000000000	5.96708900000000	0.00000000000000	
10.41996900000000	-59.25378000000000	763.32977300000005	44.67805200000000	-0.06094000000000	0.00000000000000	0.12051700000000	-8.66252300000000	57.08709400000000	14.50306600000000	0.22377800000000	0.00000000000000	-0.06924800000000	0.00000000000000	10.58656500000000	0.00000000000000	0.00000000000000	6.67115400000000	0.00000000000000	
